<svg width="24" height="24" viewBox="0 0 24 24" fill="none" xmlns="http://www.w3.org/2000/svg">
    <path d="M6.33977 6.34319C6.73029 5.95266 7.36346 5.95266 7.75398 6.34319L11.9966 10.5858L16.2393 6.34319C16.6298 5.95266 17.263 5.95266 17.6535 6.34319C18.044 6.73371 18.044 7.36688 17.6535 7.7574L13.4108 12L17.6535 16.2427C18.044 16.6332 18.044 17.2664 17.6535 17.6569C17.263 18.0474 16.6298 18.0474 16.2393 17.6569L11.9966 13.4143L7.75398 17.6569C7.36346 18.0474 6.7303 18.0474 6.33977 17.6569C5.94925 17.2664 5.94925 16.6332 6.33977 16.2427L10.5824 12L6.33977 7.7574C5.94924 7.36688 5.94924 6.73371 6.33977 6.34319Z" fill="currentColor"/>
</svg>
