<svg width="30" height="36" viewBox="0 0 30 36" fill="none" xmlns="http://www.w3.org/2000/svg">
    <path fill-rule="evenodd" clip-rule="evenodd" d="M18.0736 12.7221C19.1661 12.1774 20.5562 11.3755 21.948 10.2768C22.2414 10.8862 22.2736 11.418 22.1224 11.8474C22.0152 12.15 21.8133 12.4132 21.5479 12.6226C21.2604 12.8489 20.9013 13.0137 20.5044 13.1027C19.7513 13.2724 18.872 13.1733 18.0736 12.7221ZM18.263 18.3038L19.7092 19.1392C16.7563 20.7942 15.9536 23.8673 15 26.8605C14.0466 23.8673 13.2437 20.7942 10.291 19.1392L11.7371 18.3038C11.877 18.2509 11.9966 18.1551 12.0787 18.0301C12.1609 17.9052 12.2013 17.7574 12.1943 17.608C12.0618 14.8048 12.8187 13.5651 13.8396 12.7868C14.2058 12.508 14.6056 12.368 15 12.368C15.3944 12.368 15.7942 12.508 16.1605 12.7868C17.1814 13.5651 17.9383 14.8048 17.8058 17.608C17.7988 17.7574 17.8393 17.9052 17.9214 18.0301C18.0035 18.1551 18.1231 18.2509 18.263 18.3038ZM15 0C16.6717 0.044881 18.3475 0.369405 19.8019 1.00071C20.8091 1.43845 21.7488 2.01667 22.5998 2.7081C22.9841 3.02024 23.3005 3.32179 23.6491 3.66893C24.5892 3.70143 25.9631 2.65702 26.601 1.67976C25.5032 5.27857 20.4939 9.52845 17.026 11.1546C17.0245 11.154 17.0236 11.1532 17.0225 11.1525C16.4001 10.6773 15.7001 10.4396 15 10.4396C14.2999 10.4396 13.6 10.6773 12.9776 11.1525C12.9766 11.1531 12.9756 11.1542 12.9742 11.1546C9.50607 9.52845 4.49691 5.27857 3.39917 1.67976C4.03691 2.65702 5.41084 3.70143 6.35096 3.66893C6.69965 3.3219 7.01607 3.02024 7.40024 2.7081C8.25119 2.01667 9.19096 1.43845 10.1981 1.00071C11.6526 0.369405 13.3285 0.044881 15 0ZM11.9264 12.7221C10.8341 12.1774 9.44381 11.3755 8.05215 10.2768C7.75869 10.8862 7.72655 11.418 7.87762 11.8474C7.98488 12.15 8.18679 12.4132 8.45215 12.6226C8.73977 12.8489 9.09881 13.0137 9.49572 13.1027C10.2488 13.2724 11.128 13.1733 11.9264 12.7221Z" fill="currentColor"/>
    <path fill-rule="evenodd" clip-rule="evenodd" d="M23.4723 8.93047C24.2385 8.15726 24.9136 7.30143 25.4564 6.53773L25.7321 7.05666C26.6198 8.8325 27.081 10.6012 27.081 12.5917L27.079 15.7502L27.0957 17.3876C27.16 21.4074 28.0298 25.4744 30 29.1963L25.8777 25.8723L22.961 30.6055L19.8967 27.7208L15 35.6671L10.1033 27.721L7.03917 30.6056L4.12238 25.8724L0 29.1964C1.97024 25.4745 2.84 21.4075 2.9044 17.3877L2.92107 15.7504L2.91917 12.5918C2.91917 10.6012 3.38024 8.8325 4.2681 7.05678L4.54369 6.53785C5.08655 7.30154 5.76155 8.15726 6.52786 8.93059L6.28857 9.42762C5.82369 10.393 5.66976 11.4724 6.0319 12.4989C6.26536 13.1601 6.69143 13.7271 7.24071 14.16C7.77405 14.5804 8.40524 14.8637 9.06607 15.0125C9.49655 15.1094 9.93512 15.1493 10.3708 15.1357C10.2692 15.712 10.2248 16.3098 10.2219 16.9188L6.33333 19.1648L9.33405 20.8468C9.57389 20.9813 9.8022 21.1353 10.0167 21.3074C12.4906 23.5286 13.978 30.0996 15.0001 33.3093C16.0224 30.0996 17.5096 23.5286 19.9837 21.3074C20.1981 21.1353 20.4265 20.9812 20.6663 20.8468L23.667 19.1648L19.7783 16.9188C19.7755 16.3098 19.7311 15.712 19.6294 15.1357C20.0651 15.1493 20.5037 15.1094 20.9342 15.0125C21.595 14.8637 22.2263 14.5804 22.7595 14.16C23.3087 13.7271 23.7349 13.1601 23.9682 12.4989C24.3305 11.4724 24.1764 10.3931 23.7117 9.42762L23.4724 8.93059L23.4723 8.93047Z" fill="currentColor"/>
</svg>
