<svg width="30" height="35" viewBox="0 0 30 35" fill="none" xmlns="http://www.w3.org/2000/svg">
    <path fill-rule="evenodd" clip-rule="evenodd" d="M11.1448 1.96883C9.09191 3.03821 7.41237 3.94313 7.41273 3.97993C7.41364 4.07493 12.3397 6.56967 12.5145 6.56359C12.5941 6.56093 13.171 6.29534 13.7966 5.97347L14.9342 5.38836L16.1766 6.02697L17.4189 6.6657L19.4535 5.75148C22.5191 4.3739 22.8376 4.22294 22.7876 4.17223C22.7214 4.10493 21.6218 3.51422 18.6386 1.94363C17.1968 1.18454 15.7974 0.440286 15.5288 0.289685C15.2602 0.139085 15.0037 0.0179368 14.9589 0.0202819C14.9141 0.0226269 13.1977 0.89948 11.1448 1.96883ZM2.14088 6.63136L0.00385543 7.7352V12.5798C0.00385543 15.2443 0.0319166 17.4243 0.0663373 17.4243C0.100639 17.4243 1.15206 16.9685 2.40277 16.4115L4.6768 15.3987V10.2921L5.78804 10.8976C6.64434 11.3637 7.50116 11.8288 8.3585 12.293L9.81768 13.0831L10.467 12.7895C10.8742 12.605 11.2806 12.4188 11.6862 12.2308C11.9996 12.0848 12.7689 11.7383 13.3958 11.4606C14.0226 11.1828 14.6029 10.9034 14.6851 10.8397C14.7944 10.7552 13.4617 10.0187 9.75556 8.1155C6.96196 6.68092 4.58665 5.51173 4.47711 5.51733C4.36757 5.52294 3.31627 6.02419 2.14088 6.63136ZM23.1728 6.94134C21.7173 7.59839 20.5255 8.16224 20.5241 8.1944C20.5229 8.22651 21.3161 8.69819 22.2871 9.2424C23.2579 9.78673 24.0523 10.2612 24.0523 10.2969C24.0523 10.3326 23.1932 10.7488 22.1433 11.2221C21.0932 11.6953 18.4391 12.8939 16.2451 13.8857L8.89381 17.2086C7.04459 18.0446 5.37773 18.7981 5.18969 18.8832C1.41256 20.5931 0.374374 21.0676 0.231803 21.149C0.0884365 21.231 0.0559634 21.7074 0.030446 24.0983L0 26.9498L1.91102 27.9236L3.82201 28.8972L6.47188 27.7013C7.92935 27.0436 9.12176 26.4711 9.12176 26.4289C9.12176 26.3868 8.85243 26.2114 8.52341 26.0388C8.19423 25.8662 7.51472 25.4841 7.01323 25.1896C6.51179 24.8951 6.01177 24.6248 5.90199 24.589C5.79225 24.5532 5.70405 24.4907 5.70584 24.4499C5.70767 24.4093 6.87456 23.855 8.29876 23.2181C11.065 21.9813 13.182 21.0281 17.7268 18.9728C19.759 18.054 21.7916 17.1357 23.8244 16.218C25.6109 15.4116 27.6881 14.4698 28.4403 14.1251L29.808 13.4984L29.8384 10.6144L29.869 7.73043L27.9307 6.73557C26.8646 6.18846 25.9534 5.74214 25.9056 5.74377C25.8579 5.74528 24.6281 6.28413 23.1728 6.94134ZM29.2887 17.3459C29.0031 17.4854 28.4389 17.7467 28.035 17.9263C27.6311 18.106 26.8646 18.4519 26.3318 18.695L25.363 19.1369L25.3409 21.6688C25.3287 23.0613 25.2774 24.1945 25.2269 24.1872C25.1123 24.1701 23.2966 23.2389 21.4714 22.2609C20.1541 21.5551 20.0713 21.5271 19.7618 21.6804C19.5828 21.7691 18.5132 22.2488 17.3849 22.7466C16.2565 23.2443 15.2965 23.6841 15.2514 23.7239C15.2063 23.7637 17.4773 24.9945 20.298 26.4593L25.4265 29.1224L27.6173 27.9891C28.8221 27.3659 29.8466 26.7974 29.8938 26.7259C30 26.5651 29.9909 17.0702 29.8846 17.083C29.8425 17.0881 29.5743 17.2064 29.2887 17.3459ZM17.1569 28.4906C16.7769 28.6539 16.397 28.8175 16.0172 28.9814C14.8702 29.4776 15.095 29.494 13.7305 28.8148C12.8217 28.3624 12.43 28.2228 12.2599 28.2905C12.1324 28.3413 11.0347 28.8352 9.82042 29.388C8.60624 29.9407 7.57068 30.3929 7.51917 30.3929C7.00973 30.3929 7.85666 30.899 11.1248 32.5475L14.9575 34.4807L16.5701 33.6845C17.457 33.2466 19.2459 32.3698 20.5456 31.736C21.8451 31.102 22.8923 30.5669 22.8727 30.5467C22.8529 30.5266 21.764 29.9675 20.4528 29.3042L18.0687 28.0983L17.1569 28.4906Z" fill="currentColor"/>
</svg>
