<svg width="123" height="27" viewBox="0 0 123 27" fill="none" xmlns="http://www.w3.org/2000/svg">
    <circle cx="23.8945" cy="13.5" r="13.25" fill="currentColor"/>
    <path d="M37.0713 23.8021C37.0713 24.1612 37.3161 24.4561 37.6148 24.4158C41.0281 23.9556 43.7119 19.1988 43.7119 13.3987C43.7119 7.5985 41.0281 2.84174 37.6148 2.38147C37.3161 2.34119 37.0713 2.63609 37.0713 2.99519V23.8021Z" fill="currentColor"/>
    <path d="M43.625 21.9423C43.625 22.4429 44.0238 22.7496 44.3236 22.4562C46.3747 20.4489 47.7091 17.1844 47.7091 13.4982C47.7091 9.8121 46.3747 6.54755 44.3236 4.54031C44.0238 4.24689 43.625 4.55359 43.625 5.05417V21.9423Z" fill="currentColor"/>
    <path d="M10.5913 23.8021C10.5913 24.1612 10.3465 24.4561 10.0478 24.4158C6.63451 23.9556 3.95072 19.1988 3.95072 13.3987C3.95072 7.5985 6.63451 2.84174 10.0478 2.38147C10.3465 2.34119 10.5913 2.63609 10.5913 2.99519V23.8021Z" fill="currentColor"/>
    <path d="M4.08398 21.8626C4.08398 22.3632 3.68517 22.6699 3.38536 22.3765C1.3343 20.3692 -0.000133056 17.1047 -0.000133056 13.4185C-0.000133056 9.73238 1.3343 6.46783 3.38536 4.46059C3.68517 4.16717 4.08398 4.47388 4.08398 4.97445V21.8626Z" fill="currentColor"/>
    <path d="M57.709 19.7775V7.2225H65.3815V9.594H60.0805V12.3142H64.3352V14.6858H60.0805V19.7775H57.709Z" fill="black"/>
    <path d="M65.9135 19.7775L69.7497 7.2225H73.2895L77.1258 19.7775H74.6845L71.2668 8.70469H71.7202L68.3547 19.7775H65.9135ZM68.2152 17.1619V14.9473H74.8415V17.1619H68.2152Z" fill="black"/>
    <path d="M78.6885 19.7775V7.2225H83.9895C84.1115 7.2225 84.2743 7.22831 84.4777 7.23994C84.687 7.24575 84.873 7.26319 85.0357 7.29225C85.7855 7.4085 86.3988 7.65553 86.8754 8.03334C87.3578 8.41116 87.7124 8.88778 87.9391 9.46322C88.1658 10.0328 88.2791 10.6693 88.2791 11.3726C88.2791 12.4247 88.0175 13.3256 87.4944 14.0754C86.9713 14.8194 86.1517 15.2786 85.0357 15.453L83.9895 15.5227H81.06V19.7775H78.6885ZM85.7681 19.7775L83.292 14.6683L85.7332 14.1975L88.4535 19.7775H85.7681ZM81.06 13.3082H83.8849C84.0069 13.3082 84.1406 13.3024 84.2859 13.2908C84.4312 13.2791 84.5649 13.2559 84.687 13.221C85.0067 13.1338 85.2537 12.9885 85.4281 12.7851C85.6024 12.5758 85.7216 12.3462 85.7855 12.0963C85.8553 11.8405 85.8902 11.5993 85.8902 11.3726C85.8902 11.1459 85.8553 10.9076 85.7855 10.6577C85.7216 10.4019 85.6024 10.1723 85.4281 9.96891C85.2537 9.75966 85.0067 9.61144 84.687 9.52425C84.5649 9.48938 84.4312 9.46613 84.2859 9.4545C84.1406 9.44287 84.0069 9.43706 83.8849 9.43706H81.06V13.3082Z" fill="black"/>
    <path d="M93.2823 19.7775V9.43706H89.324V7.2225H99.6121V9.43706H95.6538V19.7775H93.2823Z" fill="black"/>
    <path d="M101.188 19.7775V7.2225H103.559V17.5629H108.965V19.7775H101.188Z" fill="black"/>
    <path d="M110.447 19.7775V7.2225H112.575L116.725 15.5576L120.875 7.2225H123.002V19.7775H120.788V12.2794L117.143 19.7775H116.306L112.662 12.2794V19.7775H110.447Z" fill="black"/>
</svg>
