<svg width="100" height="55" viewBox="0 0 100 55" fill="none" xmlns="http://www.w3.org/2000/svg">
    <ellipse cx="50.084" cy="27.5" rx="27.7725" ry="27.5" fill="currentColor"/>
    <path d="M77.7026 48.8818C77.7026 49.6271 78.2158 50.2391 78.8419 50.1555C85.9962 49.2003 91.6216 39.3277 91.6216 27.2897C91.6216 15.2516 85.9962 5.37908 78.8419 4.4238C78.2158 4.3402 77.7026 4.95225 77.7026 5.69756V48.8818Z" fill="currentColor"/>
    <path d="M91.4395 45.0218C91.4395 46.0607 92.2754 46.6973 92.9038 46.0883C97.2029 41.9223 99.9999 35.1469 99.9999 27.4964C99.9999 19.8459 97.2029 13.0704 92.9038 8.90443C92.2754 8.29546 91.4395 8.93201 91.4395 9.97093V45.0218Z" fill="currentColor"/>
    <path d="M22.1997 48.8818C22.1997 49.6271 21.6866 50.2391 21.0604 50.1555C13.9061 49.2003 8.28077 39.3277 8.28077 27.2897C8.28077 15.2516 13.9061 5.37908 21.0604 4.4238C21.6866 4.3402 22.1997 4.95225 22.1997 5.69756V48.8818Z" fill="currentColor"/>
    <path d="M8.56055 44.8563C8.56055 45.8953 7.72462 46.5318 7.09619 45.9228C2.7971 41.7569 7.53403e-05 34.9814 7.53403e-05 27.3309C7.53403e-05 19.6804 2.7971 12.9049 7.09619 8.73897C7.72463 8.12999 8.56055 8.76655 8.56055 9.80547V44.8563Z" fill="currentColor"/>
</svg>
