<svg width="32" height="32" viewBox="0 0 32 32" fill="none" xmlns="http://www.w3.org/2000/svg">
    <path d="M26.0001 15C25.7349 15 25.4805 15.1054 25.293 15.2929C25.1054 15.4804 25.0001 15.7348 25.0001 16C25.0001 18.3869 24.0519 20.6761 22.3641 22.364C20.6762 24.0518 18.387 25 16.0001 25C13.6131 25 11.324 24.0518 9.63613 22.364C7.94831 20.6761 7.00009 18.3869 7.00009 16C7.00009 15.7348 6.89474 15.4804 6.7072 15.2929C6.51966 15.1054 6.26531 15 6.00009 15C5.73488 15 5.48052 15.1054 5.29299 15.2929C5.10545 15.4804 5.00009 15.7348 5.00009 16C4.9887 18.7521 6.00937 21.4085 7.86066 23.4449C9.71195 25.4814 12.2594 26.7498 15.0001 27V30C15.0001 30.2652 15.1055 30.5196 15.293 30.7071C15.4805 30.8946 15.7349 31 16.0001 31C16.2653 31 16.5197 30.8946 16.7072 30.7071C16.8947 30.5196 17.0001 30.2652 17.0001 30V27C19.7408 26.7498 22.2882 25.4814 24.1395 23.4449C25.9908 21.4085 27.0115 18.7521 27.0001 16C27.0001 15.7348 26.8947 15.4804 26.7072 15.2929C26.5197 15.1054 26.2653 15 26.0001 15Z" fill="currentColor"/>
    <path d="M16 21C17.5913 21 19.1174 20.3679 20.2426 19.2426C21.3679 18.1174 22 16.5913 22 15V7C22 5.4087 21.3679 3.88258 20.2426 2.75736C19.1174 1.63214 17.5913 1 16 1C14.4087 1 12.8826 1.63214 11.7574 2.75736C10.6321 3.88258 10 5.4087 10 7V15C10 16.5913 10.6321 18.1174 11.7574 19.2426C12.8826 20.3679 14.4087 21 16 21Z" fill="currentColor"/>
</svg>
