<svg width="24" height="24" viewBox="0 0 24 24" fill="currentColor" xmlns="http://www.w3.org/2000/svg">
    <path d="M12.9974 4C13.5727 4 14.0391 4.44772 14.0391 5V11H20.2891C20.8644 11 21.3307 11.4477 21.3307 12C21.3307 12.5523 20.8644 13 20.2891 13H14.0391V19C14.0391 19.5523 13.5727 20 12.9974 20C12.4221 20 11.9557 19.5523 11.9557 19V13H5.70573C5.13043 13 4.66406 12.5523 4.66406 12C4.66406 11.4477 5.13043 11 5.70573 11H11.9557V5C11.9557 4.44772 12.4221 4 12.9974 4Z" fill="currentColor"/>
</svg>
